<svg width="350" height="242" viewBox="0 0 350 242" fill="none" xmlns="http://www.w3.org/2000/svg">
<g clip-path="url(#clip0_59_12)">
<path d="M283.25 153.619C283.563 153.647 283.877 153.582 284.15 153.432C284.423 153.283 284.642 153.056 284.777 152.782C284.911 152.509 284.955 152.203 284.903 151.905C284.85 151.606 284.704 151.331 284.483 151.115C284.452 150.966 284.429 150.859 284.398 150.709C284.413 150.678 284.429 150.646 284.444 150.615C284.795 149.911 285.354 149.322 286.051 148.923C286.748 148.524 287.552 148.332 288.362 148.371C289.172 148.41 289.952 148.679 290.604 149.144C291.256 149.608 291.751 150.248 292.026 150.982C293.127 153.912 294.567 156.863 294.809 159.92C294.915 161.272 294.777 162.631 294.401 163.937C297.609 157.951 299.444 151.372 299.779 144.644C299.861 142.956 299.845 141.264 299.731 139.578C299.637 138.195 299.479 136.819 299.259 135.451C298.053 128.024 295.034 120.978 290.45 114.892C288.154 113.549 286.341 111.561 285.255 109.196C284.861 108.346 284.597 107.445 284.471 106.522C284.735 106.567 285.005 106.6 285.27 106.629C285.352 106.637 285.439 106.645 285.522 106.653L285.553 106.655C285.844 106.681 286.137 106.625 286.397 106.494C286.656 106.364 286.87 106.163 287.014 105.918C287.158 105.673 287.225 105.392 287.207 105.111C287.189 104.83 287.087 104.56 286.913 104.333C286.805 104.192 286.697 104.051 286.589 103.91C286.425 103.693 286.256 103.479 286.092 103.262C286.073 103.241 286.055 103.219 286.038 103.196C285.849 102.948 285.66 102.704 285.471 102.456C285.864 101.926 286.378 101.49 286.974 101.183C289.037 100.141 291.77 101.049 293.137 102.863C294.507 104.677 294.663 107.142 294.052 109.304C293.465 111.141 292.558 112.868 291.369 114.412C291.471 114.551 291.578 114.686 291.68 114.825C293.552 117.379 295.16 120.103 296.48 122.958C296.277 119.816 296.852 116.673 298.158 113.788C299.47 111.102 301.792 108.895 303.853 106.615C306.328 103.877 311.063 105.332 311.301 108.955C311.303 108.99 311.305 109.025 311.307 109.06C311.01 109.204 310.719 109.358 310.434 109.522C310.075 109.73 309.79 110.038 309.616 110.405C309.442 110.771 309.387 111.18 309.459 111.577C309.53 111.974 309.725 112.341 310.017 112.63C310.309 112.919 310.685 113.117 311.095 113.197L311.137 113.205C310.986 114.203 310.756 115.189 310.449 116.154C309.565 118.846 308.113 121.333 306.183 123.459C304.254 125.586 301.889 127.306 299.236 128.511C299.062 128.587 298.893 128.664 298.719 128.736C299.988 132.788 300.704 136.982 300.849 141.212C300.926 143.707 300.794 146.205 300.453 148.679L300.47 148.592C301.161 145.854 302.813 143.43 305.147 141.728C308.61 139.24 313.371 138.48 317.073 136.521C317.466 136.302 317.917 136.196 318.372 136.215C318.827 136.234 319.266 136.378 319.638 136.63C320.011 136.882 320.3 137.231 320.473 137.636C320.647 138.041 320.696 138.485 320.615 138.916C320.609 138.947 320.602 138.977 320.596 139.008C320.049 139.194 319.515 139.413 318.996 139.663C318.7 139.808 318.409 139.961 318.123 140.125C317.765 140.333 317.48 140.641 317.306 141.008C317.132 141.374 317.077 141.783 317.148 142.18C317.22 142.577 317.414 142.945 317.706 143.234C317.998 143.523 318.374 143.72 318.784 143.8L318.827 143.808C318.857 143.814 318.883 143.819 318.913 143.825C317.894 145.89 316.514 147.772 314.832 149.387C312.757 151.34 310.288 152.864 307.579 153.866C304.869 154.869 301.976 155.328 299.075 155.216L299.071 155.215C298.125 158.472 296.829 161.625 295.206 164.624L283.05 164.079C283.012 163.947 282.98 163.811 282.947 163.68C284.069 163.798 285.201 163.784 286.32 163.638C285.469 162.532 284.619 161.418 283.769 160.312C283.75 160.292 283.732 160.27 283.715 160.247C283.284 159.681 282.848 159.12 282.417 158.554L282.417 158.553C282.474 156.881 282.753 155.223 283.25 153.62L283.25 153.619Z" fill="#F2F2F2"/>
<path d="M38.3184 52.4488C38.0079 52.4952 37.6901 52.4487 37.408 52.3155C37.1259 52.1823 36.8932 51.9689 36.7413 51.7041C36.5894 51.4393 36.5258 51.136 36.559 50.8353C36.5923 50.5346 36.7207 50.2509 36.9271 50.0228C36.9489 49.8718 36.9645 49.7634 36.9863 49.6124C36.969 49.5819 36.9515 49.5514 36.934 49.5209C36.5389 48.8391 35.9432 48.285 35.2219 47.928C34.5006 47.571 33.6857 47.4271 32.8797 47.5144C32.0737 47.6017 31.3124 47.9163 30.6916 48.4186C30.0707 48.921 29.618 49.5887 29.3901 50.338C28.4791 53.3284 27.2315 56.3591 27.1865 59.4249C27.1672 60.7801 27.3923 62.1281 27.8517 63.4092C24.2647 57.626 22.0117 51.1681 21.2453 44.4733C21.0548 42.7931 20.962 41.104 20.9675 39.4139C20.9732 38.0282 21.0422 36.6458 21.1744 35.2665C21.9009 27.7822 24.4615 20.5704 28.6462 14.2235C30.8518 12.7466 32.5341 10.6546 33.4663 8.22922C33.8047 7.35704 34.0102 6.4423 34.0763 5.51345C33.8156 5.57453 33.5491 5.62353 33.2865 5.6679C33.2046 5.68068 33.1183 5.69395 33.0364 5.70676L33.0055 5.71135C32.7162 5.75434 32.4202 5.71593 32.153 5.60076C31.8859 5.48558 31.6591 5.29855 31.4998 5.06218C31.3406 4.8258 31.2557 4.55015 31.2554 4.26843C31.2552 3.98671 31.3395 3.71092 31.4983 3.47426C31.5972 3.32703 31.6962 3.17986 31.7953 3.03276C31.9452 2.80592 32.0998 2.58281 32.2497 2.356C32.2675 2.33408 32.2839 2.31119 32.299 2.28746C32.4716 2.02869 32.6446 1.77411 32.8172 1.51534C32.3916 1.00956 31.8504 0.605223 31.2358 0.333857C29.1095 -0.583691 26.4399 0.485429 25.1926 2.3769C23.941 4.2688 23.9438 6.73889 24.6924 8.86056C25.3962 10.6589 26.4128 12.3289 27.6988 13.799C27.6054 13.9439 27.5073 14.0851 27.414 14.23C25.7095 16.8899 24.28 19.7042 23.1459 22.6326C23.1465 19.4849 22.3706 16.3821 20.8821 13.5794C19.4005 10.9772 16.9413 8.91248 14.7379 6.7595C12.0912 4.17344 7.4592 5.90789 7.45463 9.53783C7.45458 9.57298 7.45463 9.6081 7.45477 9.64321C7.76017 9.76932 8.06058 9.90567 8.35599 10.0522C8.72736 10.2386 9.03157 10.5286 9.22876 10.8843C9.42596 11.2399 9.50693 11.6446 9.46108 12.0453C9.41524 12.4459 9.24471 12.824 8.97183 13.1298C8.69896 13.4356 8.33646 13.6549 7.93185 13.7591L7.89042 13.7697C8.10572 14.7571 8.3987 15.7273 8.76682 16.672C9.82188 19.3062 11.431 21.7023 13.4933 23.7099C15.5555 25.7176 18.0265 27.2936 20.7513 28.3391C20.9298 28.4048 21.1041 28.471 21.2821 28.5326C20.2758 32.6526 19.8304 36.8811 19.9571 41.1117C20.0402 43.6067 20.3327 46.0912 20.8318 48.5409L20.8089 48.4546C19.9431 45.7631 18.1388 43.4417 15.7006 41.8824C12.0837 39.6049 7.28361 39.1293 3.46318 37.3942C3.05592 37.1989 2.5991 37.1196 2.1466 37.1659C1.6941 37.2122 1.26479 37.3821 0.909304 37.6555C0.553823 37.929 0.286996 38.2945 0.140295 38.7091C-0.00640629 39.1237 -0.0268642 39.57 0.0813362 39.9954C0.0896069 40.0256 0.0979641 40.0558 0.106402 40.086C0.66402 40.2394 1.21116 40.4261 1.74466 40.645C2.05006 40.7712 2.35046 40.9075 2.64587 41.0541C3.01724 41.2405 3.32145 41.5305 3.51864 41.8861C3.71583 42.2418 3.79681 42.6464 3.75096 43.0471C3.70511 43.4478 3.53458 43.8258 3.26171 44.1316C2.98883 44.4374 2.62634 44.6568 2.22173 44.7609L2.18026 44.7716C2.15039 44.7789 2.12484 44.7859 2.09501 44.7932C3.2443 46.7943 4.74291 48.5901 6.5252 50.1019C8.72221 51.9278 11.2835 53.3025 14.0522 54.1418C16.8208 54.9811 19.7384 55.2673 22.626 54.9828L22.6303 54.9824C23.7839 58.1765 25.2792 61.2466 27.0923 64.1432L39.1901 62.8767C39.2189 62.7428 39.2428 62.6052 39.2673 62.4717C38.1551 62.6567 37.0236 62.7099 35.898 62.6302C36.6758 61.4762 37.4526 60.3138 38.2304 59.1598C38.2482 59.1379 38.2647 59.115 38.2797 59.0913C38.6737 58.5011 39.0725 57.9146 39.4665 57.3244L39.4667 57.3237C39.303 55.6581 38.9172 54.0198 38.3188 52.449L38.3184 52.4488Z" fill="#F2F2F2"/>
<path d="M205.461 48.1338C206.06 48.2923 206.615 48.5753 207.088 48.9628C207.561 49.3504 207.94 49.8329 208.198 50.3766C208.456 50.9203 208.587 51.5118 208.582 52.1095C208.577 52.7073 208.436 53.2966 208.168 53.8362L214.66 60.783L211.236 65.6097L202.211 55.6755C201.3 55.1832 200.607 54.386 200.265 53.435C199.923 52.4839 199.955 51.4452 200.356 50.5156C200.756 49.586 201.497 48.83 202.438 48.3911C203.379 47.9521 204.454 47.8605 205.461 48.1338V48.1338Z" fill="#A0616A"/>
<path d="M266.238 65.1918C265.653 64.2749 264.885 63.4783 263.98 62.8476C263.074 62.2169 262.047 61.7645 260.96 61.5164C259.872 61.2683 258.744 61.2293 257.64 61.4017C256.537 61.5741 255.479 61.9545 254.529 62.5211L233.178 75.2482L210.147 56.4058L204.417 61.5407L229.859 93.3121L262.928 76.7203C262.156 77.1075 267.171 66.6526 266.238 65.1918Z" fill="#CCCCCC"/>
<path d="M223.942 107.51C223.944 117.659 221.868 127.709 217.834 137.086C213.8 146.463 207.885 154.983 200.429 162.159C192.973 169.336 184.121 175.028 174.378 178.911C164.636 182.794 154.194 184.791 143.649 184.789C99.305 184.789 63.3561 150.19 63.3561 107.51C63.3484 99.2084 64.7312 90.9597 67.451 83.0814C72.791 67.6952 83.0212 54.314 96.6951 44.83C110.369 35.3459 126.794 30.2389 143.649 30.2312C158.185 30.2263 172.449 34.0207 184.92 41.2094C197.39 48.398 207.598 58.7109 214.454 71.0473C216.154 74.091 217.637 77.2424 218.892 80.4797C219.066 80.9305 219.236 81.3812 219.401 81.8363V81.8406C220.137 83.8413 220.785 85.8791 221.346 87.9543C223.075 94.3395 223.947 100.912 223.942 107.51V107.51Z" fill="#3F3D56"/>
<path d="M134.864 55.371C131.256 53.4929 127.25 52.4328 123.151 52.2714C119.052 52.11 114.969 52.8516 111.214 54.4397C107.907 55.8248 104.425 58.3095 103.322 62.7964C107.783 60.2622 113.559 64.2662 114.707 70.6895L114.439 70.7606C113.832 75.2096 115.186 80.0534 117.807 82.8122C118.151 79.9467 120.108 77.9964 122.034 76.7781C123.959 75.5599 126.089 74.6749 127.559 72.5809C129.301 70.0984 129.744 66.4702 130.436 63.1604C131.128 59.8506 132.441 56.2933 134.864 55.371Z" fill="white"/>
<path d="M109.89 93.2307C108.655 95.0167 107.004 96.1373 105.523 97.5326C104.047 98.9322 102.642 100.821 102.347 103.247C102.16 104.801 102.45 106.381 102.41 107.952C102.37 109.524 101.825 111.292 100.715 111.683C98.9615 112.293 97.6233 109.159 95.8212 108.94C94.3892 108.768 93.1001 110.936 93.515 112.817C93.9298 114.697 95.8792 115.53 96.9988 114.302C98.0114 115.938 97.2976 118.905 95.7766 119.407C95.6159 120.437 95.4554 121.463 95.2992 122.494C91.4541 119.905 87.5688 117.273 84.2992 113.482C80.6627 109.302 78.4072 104.171 77.8222 98.7476C77.3985 94.3899 78.0274 89.4054 75.9487 86.0524C74.2848 83.3691 71.43 82.7766 68.8606 82.9441C68.3923 82.9741 67.9194 83.0256 67.451 83.0814C68.9663 78.7012 70.8908 74.4622 73.2009 70.4162C73.7236 70.2003 74.2094 69.9093 74.6417 69.5533C77.0326 67.5999 78.0943 63.6457 80.0347 60.9109C80.1596 60.7349 80.289 60.5631 80.4228 60.3957C82.4078 57.9013 85.0664 56.6176 87.6358 55.4241C93.3232 52.7666 99.1756 50.0747 105.18 50.4439L103.471 50.6028C101.477 55.9779 99.482 61.3531 97.485 66.7283C97.1817 67.5526 96.8754 68.3783 96.5661 69.2055C95.4331 72.2623 94.2644 75.5166 94.4384 78.9384C94.541 80.9648 95.2725 83.1286 96.6643 83.8241C97.9623 84.4681 99.3808 83.6782 100.634 82.8968C101.165 82.5705 101.691 82.2442 102.222 81.9136C104.127 80.7329 106.237 79.5222 108.249 80.3122C110.091 81.0335 111.451 83.442 111.71 86.0395C111.947 88.5644 111.307 91.0936 109.89 93.2307V93.2307Z" fill="white"/>
<path d="M121.219 129.928C115.656 126.632 110.093 123.335 104.53 120.039L104.624 119.805C101.165 121.072 99.7294 126.99 100.301 131.829C100.873 136.668 102.811 140.994 103.79 145.709C105.11 152.162 104.612 158.837 102.347 165.042C109.662 157.142 116.135 148.556 121.671 139.413C122.444 138.261 123.033 137.004 123.419 135.683C123.772 134.278 123.718 132.589 123.01 131.462C122.555 130.816 121.939 130.288 121.219 129.928V129.928Z" fill="white"/>
<path d="M99.2635 69.9534C98.6728 71.2317 98.4455 72.9362 98.9816 74.2588C99.5291 75.6096 100.686 76.2201 101.752 76.7283L104.826 78.1947C105.848 78.6826 106.951 79.1753 107.993 78.7739C109.25 78.2898 110.122 76.3927 109.897 74.6314C109.657 72.7572 108.429 71.468 107.294 70.3701C105.705 68.8338 104.117 67.2975 102.528 65.7611L101.633 66.8165C100.664 67.7256 99.8632 68.7863 99.2635 69.9534V69.9534Z" fill="white"/>
<path d="M207.464 89.9893C208.847 90.3027 210.23 90.6161 211.612 90.9295C211.371 95.4246 209.056 99.5848 205.952 101.092C204.658 101.719 203.217 101.95 202.147 103.122C201.179 104.187 200.688 105.844 200.238 107.429C199.448 110.193 198.658 112.958 197.869 115.723C197.021 118.703 195.933 122.013 193.729 123.086C191.838 124.009 189.675 122.88 188.22 120.987C186.766 119.093 185.878 116.547 185.018 114.066C185.071 116.771 183.764 119.424 181.913 120.364C180.057 121.304 177.8 120.454 176.56 118.355C175.668 116.848 175.298 114.86 174.423 113.332C173.549 111.803 171.716 110.928 170.761 112.362C170.132 113.315 170.212 114.774 169.9 115.985C169.414 117.865 167.942 119.046 166.483 119.149C165.029 119.252 163.611 118.445 162.393 117.35C159.881 115.083 158.03 111.486 157.312 107.489C156.995 105.707 156.906 103.766 157.455 102.096C158.004 100.426 159.328 99.1383 160.644 99.456C161.51 97.6957 159.801 95.3602 158.262 95.5662C156.719 95.7723 155.51 97.3651 154.243 98.5887C152.981 99.8123 151.214 100.701 149.943 99.486C149.952 100.615 148.997 101.362 148.172 101.268C147.351 101.178 146.62 100.542 145.866 100.091C142.953 98.3439 139.255 99.5032 137.185 102.809C138.479 97.5111 140.375 91.4318 144.349 90.1867C145.973 89.6758 147.744 90.0966 149.278 89.2121C151.995 87.6451 152.544 81.7247 150.197 79.2818C150.496 81.5916 150.438 84.2877 149.171 85.8677C147.904 87.4476 145.246 86.4172 145.406 84.0817C145.041 85.6916 143.221 85.9364 142.382 84.6999C141.539 83.4635 141.61 81.4414 142.208 79.9644C142.806 78.4875 143.823 77.4271 144.809 76.4096C146.928 74.2243 149.078 72.0133 151.531 70.6394C153.989 69.2656 156.826 68.8019 159.288 70.1672C160.586 70.8884 161.728 72.0906 163.053 72.726C164.378 73.3657 166.06 73.2841 166.938 71.79C167.924 70.1242 167.46 67.6513 167.826 65.5691C168.482 61.8897 172.305 60.1681 174.423 62.5981C172.84 62.2074 171.203 64.0106 171.006 66.1959C170.806 68.3812 171.952 70.5879 173.487 71.2491C176.065 72.3482 178.59 69.5833 180.539 67.0245C182.573 64.3455 184.61 61.6679 186.65 58.9918C186.976 58.5361 187.342 58.1081 187.743 57.7124C188.382 57.113 189.234 56.7698 190.126 56.7522C191.018 56.7347 191.883 57.0442 192.547 57.618C194.608 59.2365 195.576 62.5552 197.267 64.8392C199.72 68.1579 203.391 68.9651 206.808 69.609C209.355 70.0856 211.904 70.565 214.454 71.0473C216.154 74.091 217.637 77.2424 218.892 80.4797C214.574 82.2442 210.591 85.5457 207.464 89.9893Z" fill="white"/>
<path d="M215.698 141.646C213.787 145.381 211.564 148.96 209.052 152.349C207.446 151.688 205.72 152.869 204.216 153.976C202.646 155.135 200.759 156.265 199.149 155.208C197.503 154.127 196.972 151.1 197.494 148.7C198.016 146.304 199.319 144.398 200.581 142.586C201.919 140.663 203.351 138.666 205.211 137.919C207.076 137.172 209.471 138.228 210.015 140.779L211.336 140.736C210.595 139.757 210.983 137.73 211.978 137.374C213.124 136.958 214.119 138.473 214.797 139.813C215.101 140.418 215.408 141.028 215.698 141.646Z" fill="white"/>
<path d="M165.129 123.512C162.291 123.683 160.043 120.321 158.549 117.013C157.055 113.704 155.692 109.921 153.132 108.238C151.668 107.275 150 107.143 148.413 106.677C146.826 106.211 145.165 105.246 144.406 103.282L142.606 102.582C140.228 103.868 137.819 105.179 135.771 107.273C133.473 109.622 132.042 112.633 131.698 115.842C131.354 119.311 132.624 123.178 134.997 124.481C136.872 125.51 139.054 124.861 140.954 125.804C143.327 126.981 144.735 130.402 145.269 133.779C145.802 137.156 145.667 140.666 146.048 144.082C146.43 147.497 147.481 151.052 149.657 152.802C152.38 154.992 156.376 153.172 157.598 149.185C158.197 147.229 158.177 145.022 158.625 142.992C159.414 139.417 161.544 136.764 163.234 133.831C164.923 130.898 166.253 126.915 165.129 123.512Z" fill="white"/>
<path d="M137.085 88.379C137.35 88.6135 137.597 88.8659 137.824 89.1341C138.059 89.5247 138.18 89.9697 138.172 90.4212C138.164 90.8726 138.028 91.3134 137.779 91.6961C138.12 91.6773 138.455 91.5905 138.76 91.4412C139.065 91.2919 139.335 91.0833 139.552 90.8285C140.07 90.2608 140.526 89.643 140.912 88.9851C141.201 88.5308 141.509 87.9166 141.313 87.377C141.179 87.0087 140.862 86.8516 140.639 86.5747C140.287 86.1357 140.2 85.4385 140.017 84.836C139.624 83.5346 138.68 82.5777 137.656 82.4409L137.798 82.4671C137.371 82.6082 137.072 83.262 137.166 83.8503C137.253 84.386 137.61 84.8308 137.575 85.3772C137.524 86.1629 136.708 86.5316 136.657 87.3175C136.649 87.7117 136.803 88.093 137.085 88.379V88.379Z" fill="white"/>
<path d="M132.222 75.0268C132.227 75.0257 132.231 75.0255 132.235 75.0245C132.322 74.9479 132.403 74.8649 132.477 74.7762L132.222 75.0268Z" fill="#E6E6E6"/>
<path d="M133.074 78.715C133.701 78.3266 134.052 77.2525 133.844 76.3536C133.638 75.4602 132.908 74.8595 132.235 75.0245C132.04 75.215 131.797 75.3546 131.531 75.4302C131.264 75.5058 130.982 75.5148 130.71 75.4565C130.294 75.3534 129.837 75.0879 129.477 75.3896C129.27 75.615 129.126 75.8865 129.056 76.1795C128.923 76.5741 128.789 76.9688 128.655 77.3634C128.592 77.5047 128.575 77.6614 128.608 77.8121C128.634 77.8725 128.675 77.9255 128.728 77.9661C128.781 78.0066 128.844 78.0334 128.911 78.0438C129.712 78.2712 130.514 78.4986 131.315 78.726C131.899 78.8917 132.53 79.0514 133.074 78.715Z" fill="white"/>
<path d="M193.579 129.633C193.209 129.049 192.838 128.465 192.468 127.881C192.104 127.205 191.607 126.604 191.003 126.111C190.871 126.004 190.717 125.924 190.552 125.875C190.387 125.826 190.213 125.809 190.041 125.826C189.868 125.843 189.702 125.892 189.55 125.972C189.398 126.051 189.264 126.159 189.156 126.29L189.201 126.623C190.045 127.643 190.939 128.775 191.153 130.289C191.238 130.886 191.208 131.503 191.282 132.102C191.356 132.701 191.567 133.323 191.969 133.581C192.552 133.956 193.237 133.403 193.652 132.728C194.023 132.174 194.19 131.516 194.125 130.859C194.032 130.419 193.847 130.001 193.579 129.633V129.633Z" fill="white"/>
<path d="M210.068 107.337C210.175 106.661 210.282 105.984 210.389 105.308C210.563 104.565 210.585 103.797 210.453 103.046C210.423 102.882 210.36 102.726 210.266 102.586C210.172 102.446 210.05 102.325 209.908 102.231C209.765 102.137 209.604 102.072 209.434 102.038C209.265 102.005 209.09 102.005 208.921 102.037L208.732 102.32C208.696 103.624 208.621 105.044 207.773 106.335C207.438 106.844 207.002 107.298 206.658 107.802C206.314 108.307 206.059 108.913 206.194 109.359C206.389 110.008 207.283 110.009 208.052 109.75C208.707 109.556 209.275 109.156 209.665 108.613C209.889 108.219 210.026 107.784 210.068 107.337V107.337Z" fill="#E6E6E6"/>
<path d="M199.391 130.392C199.572 129.891 199.311 129.317 199.256 128.763C199.229 128.047 199.426 127.341 199.821 126.734C200.214 126.162 200.511 125.534 200.703 124.874C200.784 124.573 200.769 124.256 200.661 123.963C200.538 123.698 200.241 123.577 200.071 123.787L200.435 124.013C199.943 123.929 199.437 123.952 198.956 124.082C198.681 124.183 198.435 124.347 198.24 124.558C198.045 124.77 197.906 125.024 197.834 125.299C197.774 125.727 197.675 126.149 197.54 126.561C197.323 126.991 196.902 127.135 196.637 127.512C196.457 127.847 196.365 128.22 196.372 128.597C196.378 128.974 196.482 129.344 196.674 129.672C197.006 130.21 197.535 130.61 198.156 130.794C198.601 130.948 199.188 130.956 199.391 130.392Z" fill="white"/>
<path d="M209.741 133.398C209.902 133.801 210.118 134.182 210.382 134.531C210.878 135.011 211.551 134.716 212.152 134.599C212.698 134.516 213.257 134.577 213.769 134.775C214.282 134.973 214.729 135.3 215.064 135.723C214.831 134.604 214.322 133.555 213.58 132.665C212.839 131.774 211.886 131.068 210.802 130.606C209.385 130.05 207.892 129.996 206.419 129.946L206.164 130.009C206.813 131.826 208.85 131.785 209.741 133.398Z" fill="white"/>
<path d="M165.906 137.115L165.909 137.123C165.934 137.077 165.958 137.031 165.983 136.985L165.906 137.115Z" fill="#E6E6E6"/>
<path d="M164.335 140.04C163.993 140.638 163.699 141.261 163.455 141.902C163.132 142.941 162.918 144.009 162.816 145.089C162.736 145.703 162.712 146.487 163.112 146.787C163.226 146.86 163.365 146.891 163.501 146.873C163.638 146.855 163.763 146.79 163.853 146.69C164.075 146.464 164.257 146.204 164.391 145.92C165.177 144.618 165.787 143.224 166.207 141.773C166.589 140.245 166.586 138.446 165.909 137.123C165.385 138.095 164.86 139.068 164.335 140.04Z" fill="white"/>
<path d="M149.188 62.1101C149.438 62.3447 149.753 62.504 150.095 62.5683C150.438 62.6326 150.792 62.5991 151.115 62.472C151.783 62.1907 152.396 61.8009 152.927 61.3196C153.367 61.0064 153.74 60.6147 154.026 60.1659C154.184 59.8976 154.285 59.6021 154.323 59.2962C154.362 58.9903 154.337 58.6801 154.251 58.3834C154.003 57.6847 153.373 57.4504 152.817 57.2918C151.928 57.0379 151.038 56.784 150.148 56.5301L150.792 55.9719C150.13 55.6299 149.397 56.2646 148.984 57.0504C148.718 57.5635 148.533 58.1116 148.435 58.6769C148.213 59.9103 148.43 61.3791 149.188 62.1101Z" fill="#E6E6E6"/>
<path d="M164.894 57.0354C165.145 57.3014 165.492 57.4657 165.864 57.4948C166.236 57.5239 166.605 57.4157 166.897 57.1922C167.149 57.0104 167.358 56.7798 167.51 56.5151C167.663 56.2505 167.756 55.958 167.783 55.6565C167.846 54.983 167.5 54.2344 167.006 54.1763L167.119 53.5457C166.167 53.3802 164.996 53.3471 164.486 54.4597C164.314 54.8859 164.261 55.3481 164.333 55.8001C164.404 56.2521 164.598 56.678 164.894 57.0354Z" fill="#E6E6E6"/>
<path d="M162.796 23.5028C157.216 22.8969 151.613 24.4495 147.222 27.8191C142.831 31.1887 140.01 36.0993 139.381 41.4705C138.07 52.6554 144.192 76.9438 155.355 86.9982C160.61 67.7348 179.028 56.3089 181.465 46.0394C184.069 35.0661 174.417 24.7644 162.796 23.5028Z" fill="#EE24FF"/>
<path d="M158.937 48.3681C162.751 48.3681 165.843 45.3922 165.843 41.7213C165.843 38.0504 162.751 35.0745 158.937 35.0745C155.123 35.0745 152.031 38.0504 152.031 41.7213C152.031 45.3922 155.123 48.3681 158.937 48.3681Z" fill="white"/>
<path d="M151.675 96.5819C154.173 96.5819 156.199 94.6328 156.199 92.2284C156.199 89.8241 154.173 87.8749 151.675 87.8749C149.177 87.8749 147.152 89.8241 147.152 92.2284C147.152 94.6328 149.177 96.5819 151.675 96.5819Z" fill="#EE24FF"/>
<path opacity="0.2" d="M164.651 36.9592C165.428 37.4088 166.106 38.0013 166.645 38.703C167.185 39.4046 167.575 40.2017 167.795 41.0486C168.014 41.8956 168.058 42.7758 167.924 43.639C167.79 44.5023 167.48 45.3317 167.013 46.0799C166.546 46.828 165.93 47.4803 165.201 47.9995C164.472 48.5187 163.644 48.8946 162.764 49.1057C160.987 49.5321 159.107 49.2616 157.537 48.3536C159.137 48.6964 160.813 48.4796 162.262 47.7422C163.712 47.0048 164.842 45.7948 165.45 44.3289C166.057 42.863 166.103 41.2368 165.579 39.7414C165.054 38.246 163.994 36.9791 162.588 36.1672C163.315 36.3224 164.012 36.5899 164.651 36.9592V36.9592Z" fill="#231F20"/>
<path opacity="0.2" d="M181.492 46.0608C179.055 56.3303 160.637 67.7563 155.382 87.0197C154.332 86.065 153.357 85.037 152.465 83.9439C158.371 65.8368 175.642 54.8343 177.996 44.9122C180.104 36.0316 174.184 27.5919 165.69 24.0267C175.972 26.5143 183.878 36.0048 181.492 46.0608Z" fill="#231F20"/>
<path d="M98.0801 49.4375C93.8892 48.9825 89.6821 50.1485 86.3845 52.6789C83.0868 55.2094 80.9686 58.897 80.4958 62.9306C79.5114 71.3301 84.1091 89.5699 92.4916 97.1204C96.4386 82.6543 110.269 74.0738 112.099 66.3617C114.055 58.1211 106.807 50.385 98.0801 49.4375Z" fill="#EE24FF"/>
<path d="M95.1816 68.1105C98.0458 68.1105 100.368 65.8757 100.368 63.119C100.368 60.3623 98.0458 58.1275 95.1816 58.1275C92.3173 58.1275 89.9954 60.3623 89.9954 63.119C89.9954 65.8757 92.3173 68.1105 95.1816 68.1105Z" fill="white"/>
<path d="M89.7286 104.317C91.6046 104.317 93.1254 102.854 93.1254 101.048C93.1254 99.2425 91.6046 97.7788 89.7286 97.7788C87.8525 97.7788 86.3317 99.2425 86.3317 101.048C86.3317 102.854 87.8525 104.317 89.7286 104.317Z" fill="#EE24FF"/>
<path opacity="0.2" d="M99.4726 59.5428C100.056 59.8804 100.565 60.3254 100.97 60.8523C101.376 61.3792 101.669 61.9778 101.834 62.6138C101.998 63.2498 102.031 63.9108 101.931 64.5591C101.83 65.2074 101.598 65.8302 101.247 66.3921C100.896 66.9539 100.434 67.4438 99.8862 67.8337C99.3387 68.2236 98.7168 68.5058 98.056 68.6644C97.3952 68.823 96.7084 68.8547 96.0348 68.7578C95.3613 68.6609 94.7141 68.4373 94.1304 68.0996C95.3324 68.357 96.5904 68.1942 97.6791 67.6404C98.7679 67.0867 99.6163 66.178 100.073 65.0772C100.529 63.9764 100.563 62.7552 100.17 61.6322C99.7758 60.5092 98.9796 59.5577 97.9236 58.9481C98.4699 59.0646 98.993 59.2654 99.4726 59.5428Z" fill="#231F20"/>
<path opacity="0.2" d="M112.12 66.3778C110.29 74.0899 96.4589 82.6704 92.512 97.1365C91.7236 96.4196 90.9914 95.6476 90.3214 94.8267C94.7566 81.2289 107.727 72.9664 109.495 65.5152C111.077 58.8462 106.632 52.5083 100.253 49.8309C107.975 51.6991 113.912 58.8261 112.12 66.3778Z" fill="#231F20"/>
<path d="M260.448 230.257H254.754L252.045 209.118L260.449 209.118L260.448 230.257Z" fill="#A0616A"/>
<path d="M263.511 240.663H259.471L258.749 236.992L256.902 240.663H246.186C245.672 240.663 245.172 240.505 244.758 240.212C244.344 239.919 244.039 239.507 243.886 239.035C243.733 238.563 243.741 238.056 243.908 237.589C244.076 237.121 244.394 236.718 244.817 236.437L253.375 230.748V227.036L262.376 227.554L263.511 240.663Z" fill="#2F2E41"/>
<path d="M238.393 230.257H232.699L229.99 209.118L238.394 209.118L238.393 230.257Z" fill="#A0616A"/>
<path d="M241.456 240.663H237.415L236.694 236.992L234.847 240.663H224.131C223.617 240.663 223.117 240.505 222.703 240.212C222.289 239.919 221.983 239.507 221.831 239.035C221.678 238.563 221.686 238.056 221.853 237.589C222.021 237.121 222.339 236.718 222.762 236.437L231.32 230.748V227.036L240.321 227.554L241.456 240.663Z" fill="#2F2E41"/>
<path d="M216.76 174.445C217.849 176.018 229.704 219.265 229.704 219.265L240.215 220.418L238.968 209.537L237.061 190.282L234.108 177.429C234.108 177.429 244.536 154.586 245.195 152.767L245.664 151.461L248.922 179.92C249.309 180.936 249.478 182.017 249.418 183.098C249.32 184.875 251.172 211.619 251.172 211.619L252.063 221.21L261.068 222.414L264.722 205.819C267.773 200.429 266.024 181.273 264.777 179.49C263.529 177.707 264.025 165.289 264.025 165.289C265.618 164.75 275.119 133.568 270.367 133.752C270.672 132.09 270.912 130.606 270.912 130.606L262.663 124.203L242.019 119.038L236.81 116.631C236.81 116.631 227.508 133.186 227.601 134.009C227.729 135.052 227.481 136.105 226.898 136.993L217.506 167.245C217.506 167.245 215.659 172.856 216.76 174.445Z" fill="#2F2E41"/>
<path d="M268.624 66.1916L265.34 59.4804L254.162 59.8939L250.516 66.8758C250.516 66.8758 240.097 78.854 239.759 82.7488C239.335 87.6475 242.86 111.656 239.335 110.099C239.335 110.099 231.024 119.488 235.942 119.488C240.86 119.488 263.105 132.929 264.565 134.44C266.024 135.952 272.54 136.932 271.994 133.776C271.447 130.621 268.624 113.556 268.624 113.556L276.267 86.7221C278.466 80.9288 279.151 74.4305 274.179 70.5389L268.624 66.1916Z" fill="#CCCCCC"/>
<path d="M227.22 46.4388C225.725 45.8676 224.128 45.5854 222.519 45.6084C220.911 45.6313 219.323 45.959 217.846 46.5726C216.369 47.1862 215.032 48.0738 213.912 49.1847C212.792 50.2955 211.909 51.6079 211.316 53.0469C208.82 59.0988 208.406 73.551 213.051 80.7942C219.023 70.8095 231.106 67.1226 234.086 61.7463C237.271 56.0016 233.508 48.8411 227.22 46.4388Z" fill="#EE24FF"/>
<path d="M222.192 59.8893C224.399 59.8893 226.187 58.1678 226.187 56.0443C226.187 53.9208 224.399 52.1994 222.192 52.1994C219.986 52.1994 218.197 53.9208 218.197 56.0443C218.197 58.1678 219.986 59.8893 222.192 59.8893Z" fill="white"/>
<path d="M210.172 85.6945C211.617 85.6945 212.789 84.5669 212.789 83.1761C212.789 81.7852 211.617 80.6577 210.172 80.6577C208.727 80.6577 207.556 81.7852 207.556 83.1761C207.556 84.5669 208.727 85.6945 210.172 85.6945Z" fill="#EE24FF"/>
<path opacity="0.2" d="M226.133 54.2211C226.865 54.9575 227.263 55.9434 227.24 56.9623C227.217 57.9811 226.775 58.9494 226.01 59.6546C225.246 60.3597 224.222 60.7439 223.163 60.7228C222.105 60.7017 221.098 60.2769 220.365 59.5419C221.204 59.9671 222.173 60.0909 223.099 59.8911C224.025 59.6913 224.846 59.181 225.416 58.4515C225.987 57.722 226.269 56.821 226.212 55.9097C226.155 54.9984 225.763 54.1362 225.106 53.4776C225.488 53.6705 225.835 53.9216 226.133 54.2211Z" fill="#231F20"/>
<path opacity="0.2" d="M234.098 61.7623C231.118 67.1386 219.035 70.8254 213.063 80.8102C212.627 80.1239 212.245 79.4076 211.92 78.6671C218.073 69.4228 229.449 65.8048 232.328 60.6103C234.905 55.9612 232.932 50.3853 228.753 47.1541C234.1 50.045 237.016 56.4978 234.098 61.7623Z" fill="#231F20"/>
<path d="M208.993 82.3089C209.601 82.1883 210.23 82.1974 210.834 82.3358C211.438 82.4741 212.003 82.7383 212.49 83.1096C212.977 83.481 213.373 83.9506 213.651 84.4852C213.928 85.0199 214.081 85.6066 214.097 86.2042L223.161 89.5525L222.39 95.3496L209.66 90.4482C208.615 90.4085 207.622 90.0013 206.868 89.3038C206.114 88.6062 205.652 87.6668 205.57 86.6636C205.488 85.6603 205.791 84.6629 206.422 83.8603C207.053 83.0577 207.968 82.5057 208.993 82.3089L208.993 82.3089Z" fill="#A0616A"/>
<path d="M272.319 70.3625C271.365 69.8018 270.305 69.428 269.201 69.2624C268.096 69.0968 266.968 69.1427 265.882 69.3976C264.796 69.6524 263.773 70.1111 262.871 70.7474C261.969 71.3837 261.207 72.185 260.628 73.1055L247.619 93.7813L218.207 87.0712L215.527 94.1515L253.193 111.324L272.269 82.0799C275.125 78.2169 276.524 72.8331 272.319 70.3625Z" fill="#CCCCCC"/>
<path d="M272.805 45.0236C272.806 47.0164 272.299 48.9789 271.327 50.7388C270.356 52.4987 268.951 54.0023 267.235 55.1175C265.519 56.2327 263.545 56.9254 261.486 57.1349C259.427 57.3444 257.346 57.0642 255.426 56.3189C253.505 55.5736 251.805 54.386 250.472 52.8604C249.14 51.3348 248.218 49.5178 247.786 47.5689C247.354 45.62 247.425 43.5988 247.994 41.6827C248.563 39.7666 249.612 38.0143 251.049 36.5795L251.11 36.5211C251.211 36.4188 251.312 36.3166 251.418 36.2191C251.419 36.2192 251.42 36.219 251.42 36.2188C251.421 36.2186 251.421 36.2182 251.422 36.2177C251.422 36.2173 251.423 36.2167 251.423 36.2161C251.423 36.2156 251.423 36.2149 251.423 36.2143C251.555 36.0974 251.686 35.9805 251.823 35.8685C253.651 34.3262 255.902 33.3236 258.306 32.9808C260.711 32.6379 263.167 32.9693 265.381 33.9353C267.595 34.9012 269.472 36.4608 270.789 38.4274C272.106 40.3939 272.806 42.6841 272.805 45.0236V45.0236Z" fill="#2F2E41"/>
<path d="M257.04 58.049C262.898 58.049 267.647 53.4784 267.647 47.8404C267.647 42.2023 262.898 37.6317 257.04 37.6317C251.182 37.6317 246.433 42.2023 246.433 47.8404C246.433 53.4784 251.182 58.049 257.04 58.049Z" fill="#9E616A"/>
<path d="M268.303 50.7517L266.546 50.4529C265.564 50.2811 264.66 49.8249 263.955 49.1451C263.249 48.4654 262.777 47.5947 262.599 46.6493L260.885 49.4154L260.81 49.4393C256.724 50.7449 252.473 50.3544 247.817 48.2472C246.485 47.6394 245.194 46.954 243.949 46.1949L243.857 46.1397L243.85 46.0358C243.613 42.7149 244.387 39.9405 246.031 38.2237C246.662 37.5778 247.428 37.0675 248.278 36.7263C249.128 36.3852 250.044 36.2208 250.965 36.244C251.031 36.2275 251.091 36.1955 251.14 36.1509C251.164 36.1342 251.187 36.1176 251.211 36.1019V36.0847L251.333 36.0295C251.595 35.9111 251.861 35.7977 252.128 35.694C254.227 34.9121 256.512 34.7159 258.722 35.1281C260.931 35.5403 262.975 36.5441 264.618 38.0242C267.885 41.0262 269.384 46.0641 268.347 50.5609L268.303 50.7517Z" fill="#2F2E41"/>
<path d="M290.675 59.4495C287.066 57.6564 291.708 51.1486 290.775 47.3437C289.842 43.5388 283.125 42.315 282.697 38.4273C282.269 34.5396 281.262 30.5299 278.597 27.5799C276.894 25.6949 274.384 24.3033 271.8 24.5394C270.926 24.6193 270.08 24.8796 269.319 25.3025C268.559 25.7255 267.902 26.3013 267.394 26.9905C266.886 27.6798 266.538 28.4664 266.374 29.2968C266.21 30.1271 266.234 30.9818 266.444 31.8024C265.708 30.7991 263.804 31.0166 263.333 32.1578C262.914 33.1723 263.84 34.4012 264.929 34.491C266.354 36.1851 267.986 37.983 270.219 38.3247C270.575 38.4034 270.945 38.4032 271.301 38.3242C271.656 38.2451 271.989 38.0894 272.273 37.8686C272.798 37.3831 272.839 36.4124 272.216 36.0495C275.022 37.1224 276.667 40.0425 277.083 42.9209C277.5 45.7992 276.924 48.7115 276.544 51.5946C276.164 54.4777 276.001 57.5105 277.175 60.1878C278.563 63.351 281.758 65.6182 285.245 66.3452C288.731 67.0723 292.445 66.3617 295.601 64.7607C298.757 63.1597 301.389 60.7155 303.539 57.9754C299.835 60.5064 294.711 61.4546 290.675 59.4495Z" fill="#2F2E41"/>
<path d="M267.852 50.4679C267.852 50.4679 264.71 39.1799 251.241 36.5746C251.226 36.5698 251.175 36.5503 251.11 36.5211C251.069 36.4967 251.019 36.4724 250.968 36.448C251.12 36.3652 251.266 36.2922 251.418 36.2191C251.419 36.2191 251.42 36.219 251.42 36.2188C251.421 36.2185 251.421 36.2182 251.422 36.2177C251.422 36.2173 251.423 36.2167 251.423 36.2161C251.423 36.2155 251.423 36.2149 251.423 36.2143C251.555 36.0974 251.686 35.9805 251.823 35.8685L252.208 35.8831C252.208 35.8831 265.722 33.8233 267.852 50.4679Z" fill="#FD6584"/>
<path opacity="0.2" d="M260.817 86.688L253.21 95.1704L240.641 91.598L254.344 97.6756L260.817 86.688Z" fill="black"/>
<path d="M306.476 241.303L189.52 241.428C189.387 241.428 189.258 241.376 189.164 241.285C189.07 241.194 189.017 241.071 189.017 240.942C189.017 240.813 189.07 240.69 189.164 240.599C189.258 240.508 189.387 240.456 189.52 240.456L306.476 240.33C306.61 240.33 306.739 240.382 306.834 240.473C306.928 240.564 306.981 240.688 306.981 240.816C306.981 240.945 306.928 241.069 306.834 241.16C306.739 241.251 306.61 241.303 306.476 241.303V241.303Z" fill="#CACACA"/>
<path d="M311.61 165.766C306.134 165.766 300.131 165.567 293.603 165.168C259.835 163.105 216.097 155.929 170.443 144.965C124.79 134 82.6759 120.556 51.86 107.109C36.8487 100.558 25.3275 94.3577 17.617 88.6789C9.45363 82.6671 5.88284 77.4268 7.00344 73.1042C9.18691 64.6831 28.5204 62.8408 44.3548 62.7782L44.3602 64.0028C22.6154 64.0887 9.78708 67.4264 8.23818 73.4008C6.26515 81.0101 22.3563 92.8895 52.3855 105.993C83.1336 119.411 125.17 132.829 170.751 143.777C216.332 154.724 259.99 161.887 293.683 163.946C326.587 165.958 346.592 162.747 348.565 155.138C350.203 148.82 339.404 139.513 318.158 128.931L318.743 127.843C334.181 135.532 352.1 146.561 349.799 155.434C348.679 159.757 342.968 162.768 332.827 164.383C327.047 165.304 319.946 165.766 311.61 165.766Z" fill="#EE24FF"/>
</g>
<defs>
<clipPath id="clip0_59_12">
<rect width="350" height="241.428" fill="white"/>
</clipPath>
</defs>
</svg>
